<mxfile host="app.diagrams.net" modified="2022-08-25T19:25:49.765Z" agent="5.0 (Windows NT 10.0; Win64; x64) AppleWebKit/537.36 (KHTML, like Gecko) Chrome/104.0.0.0 Safari/537.36" etag="gAjvaArrdt8PJYWBaMD-" version="20.2.5" type="github">
  <diagram id="W4tqpCSKRpgrWZ5h4-77" name="Page-1">
    <mxGraphModel dx="1422" dy="794" grid="1" gridSize="10" guides="1" tooltips="1" connect="1" arrows="1" fold="1" page="1" pageScale="1" pageWidth="827" pageHeight="1169" math="0" shadow="0">
      <root>
        <mxCell id="0" />
        <mxCell id="1" parent="0" />
        <mxCell id="XQKA6E9SfsW4dxAdsVXB-2" style="edgeStyle=orthogonalEdgeStyle;rounded=0;orthogonalLoop=1;jettySize=auto;html=1;exitX=0.25;exitY=0;exitDx=0;exitDy=0;endArrow=oval;endFill=1;" parent="1" source="XQKA6E9SfsW4dxAdsVXB-1" edge="1">
          <mxGeometry relative="1" as="geometry">
            <mxPoint x="40" y="100" as="targetPoint" />
          </mxGeometry>
        </mxCell>
        <mxCell id="XQKA6E9SfsW4dxAdsVXB-5" style="edgeStyle=orthogonalEdgeStyle;rounded=0;orthogonalLoop=1;jettySize=auto;html=1;exitX=0.25;exitY=0;exitDx=0;exitDy=0;endArrow=oval;endFill=0;" parent="1" source="XQKA6E9SfsW4dxAdsVXB-1" edge="1">
          <mxGeometry relative="1" as="geometry">
            <mxPoint x="60" y="100" as="targetPoint" />
          </mxGeometry>
        </mxCell>
        <mxCell id="XQKA6E9SfsW4dxAdsVXB-7" style="edgeStyle=orthogonalEdgeStyle;rounded=0;orthogonalLoop=1;jettySize=auto;html=1;exitX=0.75;exitY=0;exitDx=0;exitDy=0;endArrow=oval;endFill=0;" parent="1" source="XQKA6E9SfsW4dxAdsVXB-1" edge="1">
          <mxGeometry relative="1" as="geometry">
            <mxPoint x="110.14285714285711" y="100" as="targetPoint" />
          </mxGeometry>
        </mxCell>
        <mxCell id="XQKA6E9SfsW4dxAdsVXB-10" value="" style="edgeStyle=orthogonalEdgeStyle;rounded=0;orthogonalLoop=1;jettySize=auto;html=1;endArrow=none;endFill=0;" parent="1" source="XQKA6E9SfsW4dxAdsVXB-1" target="XQKA6E9SfsW4dxAdsVXB-9" edge="1">
          <mxGeometry relative="1" as="geometry" />
        </mxCell>
        <mxCell id="XQKA6E9SfsW4dxAdsVXB-30" value="" style="edgeStyle=orthogonalEdgeStyle;rounded=0;orthogonalLoop=1;jettySize=auto;html=1;fontSize=12;endArrow=none;endFill=0;" parent="1" source="XQKA6E9SfsW4dxAdsVXB-1" target="XQKA6E9SfsW4dxAdsVXB-29" edge="1">
          <mxGeometry relative="1" as="geometry">
            <Array as="points">
              <mxPoint x="70" y="330" />
            </Array>
          </mxGeometry>
        </mxCell>
        <mxCell id="XQKA6E9SfsW4dxAdsVXB-1" value="ALUNO&amp;nbsp;" style="whiteSpace=wrap;html=1;" parent="1" vertex="1">
          <mxGeometry x="10" y="130" width="120" height="60" as="geometry" />
        </mxCell>
        <mxCell id="XQKA6E9SfsW4dxAdsVXB-3" value="RA" style="text;html=1;align=center;verticalAlign=middle;resizable=0;points=[];autosize=1;strokeColor=none;fillColor=none;rotation=-90;" parent="1" vertex="1">
          <mxGeometry x="20" y="70" width="30" height="20" as="geometry" />
        </mxCell>
        <mxCell id="XQKA6E9SfsW4dxAdsVXB-6" value="Nome" style="text;html=1;align=center;verticalAlign=middle;resizable=0;points=[];autosize=1;strokeColor=none;fillColor=none;rotation=-90;" parent="1" vertex="1">
          <mxGeometry x="35" y="70" width="50" height="20" as="geometry" />
        </mxCell>
        <mxCell id="XQKA6E9SfsW4dxAdsVXB-8" value="Curso" style="text;html=1;align=center;verticalAlign=middle;resizable=0;points=[];autosize=1;strokeColor=none;fillColor=none;rotation=-90;" parent="1" vertex="1">
          <mxGeometry x="85" y="70" width="50" height="20" as="geometry" />
        </mxCell>
        <mxCell id="XQKA6E9SfsW4dxAdsVXB-12" value="" style="edgeStyle=orthogonalEdgeStyle;rounded=0;orthogonalLoop=1;jettySize=auto;html=1;endArrow=none;endFill=0;" parent="1" source="XQKA6E9SfsW4dxAdsVXB-9" target="XQKA6E9SfsW4dxAdsVXB-11" edge="1">
          <mxGeometry relative="1" as="geometry" />
        </mxCell>
        <mxCell id="XQKA6E9SfsW4dxAdsVXB-9" value="&lt;font style=&quot;font-size: 10px;&quot;&gt;MATRICULADO&lt;/font&gt;" style="rhombus;whiteSpace=wrap;html=1;" parent="1" vertex="1">
          <mxGeometry x="234" y="120" width="90" height="80" as="geometry" />
        </mxCell>
        <mxCell id="XQKA6E9SfsW4dxAdsVXB-14" style="edgeStyle=orthogonalEdgeStyle;rounded=0;orthogonalLoop=1;jettySize=auto;html=1;exitX=0.25;exitY=0;exitDx=0;exitDy=0;fontSize=9;endArrow=oval;endFill=1;" parent="1" source="XQKA6E9SfsW4dxAdsVXB-11" edge="1">
          <mxGeometry relative="1" as="geometry">
            <mxPoint x="410" y="110" as="targetPoint" />
          </mxGeometry>
        </mxCell>
        <mxCell id="XQKA6E9SfsW4dxAdsVXB-16" style="edgeStyle=orthogonalEdgeStyle;rounded=0;orthogonalLoop=1;jettySize=auto;html=1;exitX=0.5;exitY=0;exitDx=0;exitDy=0;fontSize=12;endArrow=oval;endFill=0;" parent="1" source="XQKA6E9SfsW4dxAdsVXB-11" edge="1">
          <mxGeometry relative="1" as="geometry">
            <mxPoint x="439.8571428571429" y="110" as="targetPoint" />
          </mxGeometry>
        </mxCell>
        <mxCell id="XQKA6E9SfsW4dxAdsVXB-17" style="edgeStyle=orthogonalEdgeStyle;rounded=0;orthogonalLoop=1;jettySize=auto;html=1;exitX=0.75;exitY=0;exitDx=0;exitDy=0;fontSize=12;endArrow=oval;endFill=0;" parent="1" source="XQKA6E9SfsW4dxAdsVXB-11" edge="1">
          <mxGeometry relative="1" as="geometry">
            <mxPoint x="470.1428571428571" y="110" as="targetPoint" />
          </mxGeometry>
        </mxCell>
        <mxCell id="XQKA6E9SfsW4dxAdsVXB-21" value="" style="edgeStyle=orthogonalEdgeStyle;rounded=0;orthogonalLoop=1;jettySize=auto;html=1;fontSize=12;endArrow=none;endFill=0;" parent="1" source="XQKA6E9SfsW4dxAdsVXB-11" target="XQKA6E9SfsW4dxAdsVXB-20" edge="1">
          <mxGeometry relative="1" as="geometry" />
        </mxCell>
        <mxCell id="XQKA6E9SfsW4dxAdsVXB-38" value="" style="edgeStyle=orthogonalEdgeStyle;rounded=0;orthogonalLoop=1;jettySize=auto;html=1;fontSize=12;endArrow=none;endFill=0;" parent="1" source="XQKA6E9SfsW4dxAdsVXB-11" target="XQKA6E9SfsW4dxAdsVXB-37" edge="1">
          <mxGeometry relative="1" as="geometry" />
        </mxCell>
        <mxCell id="XQKA6E9SfsW4dxAdsVXB-11" value="CURSO" style="whiteSpace=wrap;html=1;" parent="1" vertex="1">
          <mxGeometry x="400" y="130" width="120" height="60" as="geometry" />
        </mxCell>
        <mxCell id="XQKA6E9SfsW4dxAdsVXB-15" value="&lt;font style=&quot;font-size: 12px;&quot;&gt;ID&amp;nbsp;&lt;/font&gt;" style="text;html=1;align=center;verticalAlign=middle;resizable=0;points=[];autosize=1;strokeColor=none;fillColor=none;fontSize=9;rotation=-90;" parent="1" vertex="1">
          <mxGeometry x="390" y="80" width="30" height="20" as="geometry" />
        </mxCell>
        <mxCell id="XQKA6E9SfsW4dxAdsVXB-18" value="NOME" style="text;html=1;align=center;verticalAlign=middle;resizable=0;points=[];autosize=1;strokeColor=none;fillColor=none;fontSize=12;rotation=-90;" parent="1" vertex="1">
          <mxGeometry x="415" y="70" width="50" height="20" as="geometry" />
        </mxCell>
        <mxCell id="XQKA6E9SfsW4dxAdsVXB-19" value="Text" style="text;html=1;align=center;verticalAlign=middle;resizable=0;points=[];autosize=1;strokeColor=none;fillColor=none;fontSize=12;" parent="1" vertex="1">
          <mxGeometry x="460" y="80" width="40" height="20" as="geometry" />
        </mxCell>
        <mxCell id="XQKA6E9SfsW4dxAdsVXB-23" value="" style="edgeStyle=orthogonalEdgeStyle;rounded=0;orthogonalLoop=1;jettySize=auto;html=1;fontSize=12;endArrow=none;endFill=0;" parent="1" source="XQKA6E9SfsW4dxAdsVXB-20" target="XQKA6E9SfsW4dxAdsVXB-22" edge="1">
          <mxGeometry relative="1" as="geometry" />
        </mxCell>
        <mxCell id="XQKA6E9SfsW4dxAdsVXB-20" value="TEM" style="rhombus;whiteSpace=wrap;html=1;" parent="1" vertex="1">
          <mxGeometry x="420" y="260" width="80" height="80" as="geometry" />
        </mxCell>
        <mxCell id="XQKA6E9SfsW4dxAdsVXB-24" style="edgeStyle=orthogonalEdgeStyle;rounded=0;orthogonalLoop=1;jettySize=auto;html=1;exitX=0.25;exitY=0;exitDx=0;exitDy=0;fontSize=12;endArrow=oval;endFill=1;" parent="1" source="XQKA6E9SfsW4dxAdsVXB-22" edge="1">
          <mxGeometry relative="1" as="geometry">
            <mxPoint x="410" y="409.9999999999999" as="targetPoint" />
          </mxGeometry>
        </mxCell>
        <mxCell id="XQKA6E9SfsW4dxAdsVXB-25" style="edgeStyle=orthogonalEdgeStyle;rounded=0;orthogonalLoop=1;jettySize=auto;html=1;exitX=0.75;exitY=0;exitDx=0;exitDy=0;fontSize=12;endArrow=oval;endFill=0;" parent="1" source="XQKA6E9SfsW4dxAdsVXB-22" edge="1">
          <mxGeometry relative="1" as="geometry">
            <mxPoint x="490.3103448275863" y="409.9999999999999" as="targetPoint" />
          </mxGeometry>
        </mxCell>
        <mxCell id="XQKA6E9SfsW4dxAdsVXB-35" value="" style="edgeStyle=orthogonalEdgeStyle;rounded=0;orthogonalLoop=1;jettySize=auto;html=1;fontSize=12;endArrow=none;endFill=0;" parent="1" source="XQKA6E9SfsW4dxAdsVXB-22" target="XQKA6E9SfsW4dxAdsVXB-34" edge="1">
          <mxGeometry relative="1" as="geometry" />
        </mxCell>
        <mxCell id="XQKA6E9SfsW4dxAdsVXB-22" value="DISCIPLINAS" style="whiteSpace=wrap;html=1;" parent="1" vertex="1">
          <mxGeometry x="400" y="430" width="120" height="60" as="geometry" />
        </mxCell>
        <mxCell id="XQKA6E9SfsW4dxAdsVXB-26" style="edgeStyle=orthogonalEdgeStyle;rounded=0;orthogonalLoop=1;jettySize=auto;html=1;exitX=0.75;exitY=0;exitDx=0;exitDy=0;fontSize=12;endArrow=oval;endFill=0;" parent="1" edge="1">
          <mxGeometry relative="1" as="geometry">
            <mxPoint x="510.3103448275863" y="409.9999999999999" as="targetPoint" />
            <mxPoint x="510" y="429.9999999999999" as="sourcePoint" />
          </mxGeometry>
        </mxCell>
        <mxCell id="XQKA6E9SfsW4dxAdsVXB-27" value="ID" style="text;html=1;align=center;verticalAlign=middle;resizable=0;points=[];autosize=1;strokeColor=none;fillColor=none;fontSize=12;" parent="1" vertex="1">
          <mxGeometry x="395" y="380" width="30" height="20" as="geometry" />
        </mxCell>
        <mxCell id="XQKA6E9SfsW4dxAdsVXB-28" value="NOME" style="text;html=1;align=center;verticalAlign=middle;resizable=0;points=[];autosize=1;strokeColor=none;fillColor=none;fontSize=12;rotation=-90;" parent="1" vertex="1">
          <mxGeometry x="465" y="370" width="50" height="20" as="geometry" />
        </mxCell>
        <mxCell id="XQKA6E9SfsW4dxAdsVXB-31" style="edgeStyle=orthogonalEdgeStyle;rounded=0;orthogonalLoop=1;jettySize=auto;html=1;entryX=0;entryY=0.5;entryDx=0;entryDy=0;fontSize=12;endArrow=none;endFill=0;" parent="1" source="XQKA6E9SfsW4dxAdsVXB-29" target="XQKA6E9SfsW4dxAdsVXB-22" edge="1">
          <mxGeometry relative="1" as="geometry" />
        </mxCell>
        <mxCell id="XQKA6E9SfsW4dxAdsVXB-68" style="edgeStyle=orthogonalEdgeStyle;rounded=0;orthogonalLoop=1;jettySize=auto;html=1;exitX=1;exitY=0;exitDx=0;exitDy=0;fontSize=10;endArrow=oval;endFill=0;" parent="1" source="XQKA6E9SfsW4dxAdsVXB-29" edge="1">
          <mxGeometry relative="1" as="geometry">
            <mxPoint x="194" y="270" as="targetPoint" />
            <Array as="points">
              <mxPoint x="194" y="310" />
            </Array>
          </mxGeometry>
        </mxCell>
        <mxCell id="XQKA6E9SfsW4dxAdsVXB-29" value="&lt;font style=&quot;font-size: 10px;&quot;&gt;MATRICULADO&lt;/font&gt;" style="rhombus;whiteSpace=wrap;html=1;" parent="1" vertex="1">
          <mxGeometry x="154" y="290" width="80" height="80" as="geometry" />
        </mxCell>
        <mxCell id="XQKA6E9SfsW4dxAdsVXB-33" value="VAGAS" style="text;html=1;align=center;verticalAlign=middle;resizable=0;points=[];autosize=1;strokeColor=none;fillColor=none;fontSize=12;rotation=-90;" parent="1" vertex="1">
          <mxGeometry x="480" y="370" width="60" height="20" as="geometry" />
        </mxCell>
        <mxCell id="XQKA6E9SfsW4dxAdsVXB-36" style="edgeStyle=orthogonalEdgeStyle;rounded=0;orthogonalLoop=1;jettySize=auto;html=1;entryX=0.695;entryY=1.006;entryDx=0;entryDy=0;entryPerimeter=0;fontSize=12;endArrow=none;endFill=0;" parent="1" source="XQKA6E9SfsW4dxAdsVXB-34" target="XQKA6E9SfsW4dxAdsVXB-22" edge="1">
          <mxGeometry relative="1" as="geometry">
            <Array as="points">
              <mxPoint x="660" y="510" />
              <mxPoint x="483" y="510" />
            </Array>
          </mxGeometry>
        </mxCell>
        <mxCell id="XQKA6E9SfsW4dxAdsVXB-34" value="PRE" style="rhombus;whiteSpace=wrap;html=1;" parent="1" vertex="1">
          <mxGeometry x="620" y="420" width="80" height="80" as="geometry" />
        </mxCell>
        <mxCell id="XQKA6E9SfsW4dxAdsVXB-40" value="" style="edgeStyle=orthogonalEdgeStyle;rounded=0;orthogonalLoop=1;jettySize=auto;html=1;fontSize=12;endArrow=none;endFill=0;" parent="1" source="XQKA6E9SfsW4dxAdsVXB-37" target="XQKA6E9SfsW4dxAdsVXB-39" edge="1">
          <mxGeometry relative="1" as="geometry" />
        </mxCell>
        <mxCell id="XQKA6E9SfsW4dxAdsVXB-37" value="TEM" style="rhombus;whiteSpace=wrap;html=1;" parent="1" vertex="1">
          <mxGeometry x="620" y="120" width="80" height="80" as="geometry" />
        </mxCell>
        <mxCell id="XQKA6E9SfsW4dxAdsVXB-49" style="edgeStyle=orthogonalEdgeStyle;rounded=0;orthogonalLoop=1;jettySize=auto;html=1;exitX=0.25;exitY=0;exitDx=0;exitDy=0;fontSize=12;endArrow=oval;endFill=1;" parent="1" source="XQKA6E9SfsW4dxAdsVXB-39" edge="1">
          <mxGeometry relative="1" as="geometry">
            <mxPoint x="780" y="110" as="targetPoint" />
          </mxGeometry>
        </mxCell>
        <mxCell id="XQKA6E9SfsW4dxAdsVXB-50" style="edgeStyle=orthogonalEdgeStyle;rounded=0;orthogonalLoop=1;jettySize=auto;html=1;exitX=0.5;exitY=0;exitDx=0;exitDy=0;fontSize=12;endArrow=oval;endFill=0;" parent="1" source="XQKA6E9SfsW4dxAdsVXB-39" edge="1">
          <mxGeometry relative="1" as="geometry">
            <mxPoint x="819.8571428571429" y="110" as="targetPoint" />
          </mxGeometry>
        </mxCell>
        <mxCell id="XQKA6E9SfsW4dxAdsVXB-39" value="DEPARTAMENTO" style="whiteSpace=wrap;html=1;" parent="1" vertex="1">
          <mxGeometry x="760" y="130" width="120" height="60" as="geometry" />
        </mxCell>
        <mxCell id="XQKA6E9SfsW4dxAdsVXB-52" value="ID" style="text;html=1;align=center;verticalAlign=middle;resizable=0;points=[];autosize=1;strokeColor=none;fillColor=none;fontSize=12;rotation=-90;" parent="1" vertex="1">
          <mxGeometry x="765" y="80" width="30" height="20" as="geometry" />
        </mxCell>
        <mxCell id="XQKA6E9SfsW4dxAdsVXB-53" value="NOME" style="text;html=1;align=center;verticalAlign=middle;resizable=0;points=[];autosize=1;strokeColor=none;fillColor=none;fontSize=12;rotation=-90;" parent="1" vertex="1">
          <mxGeometry x="795" y="70" width="50" height="20" as="geometry" />
        </mxCell>
        <mxCell id="XQKA6E9SfsW4dxAdsVXB-58" value="N" style="text;html=1;align=center;verticalAlign=middle;resizable=0;points=[];autosize=1;strokeColor=none;fillColor=none;fontSize=10;" parent="1" vertex="1">
          <mxGeometry x="140" y="140" width="20" height="20" as="geometry" />
        </mxCell>
        <mxCell id="XQKA6E9SfsW4dxAdsVXB-59" value="1" style="text;html=1;align=center;verticalAlign=middle;resizable=0;points=[];autosize=1;strokeColor=none;fillColor=none;fontSize=10;" parent="1" vertex="1">
          <mxGeometry x="370" y="140" width="20" height="20" as="geometry" />
        </mxCell>
        <mxCell id="XQKA6E9SfsW4dxAdsVXB-60" value="N" style="text;html=1;align=center;verticalAlign=middle;resizable=0;points=[];autosize=1;strokeColor=none;fillColor=none;fontSize=10;" parent="1" vertex="1">
          <mxGeometry x="530" y="140" width="20" height="20" as="geometry" />
        </mxCell>
        <mxCell id="XQKA6E9SfsW4dxAdsVXB-61" value="1" style="text;html=1;align=center;verticalAlign=middle;resizable=0;points=[];autosize=1;strokeColor=none;fillColor=none;fontSize=10;" parent="1" vertex="1">
          <mxGeometry x="720" y="140" width="20" height="20" as="geometry" />
        </mxCell>
        <mxCell id="XQKA6E9SfsW4dxAdsVXB-62" value="N" style="text;html=1;align=center;verticalAlign=middle;resizable=0;points=[];autosize=1;strokeColor=none;fillColor=none;fontSize=10;" parent="1" vertex="1">
          <mxGeometry x="460" y="190" width="20" height="20" as="geometry" />
        </mxCell>
        <mxCell id="XQKA6E9SfsW4dxAdsVXB-63" value="N" style="text;html=1;align=center;verticalAlign=middle;resizable=0;points=[];autosize=1;strokeColor=none;fillColor=none;fontSize=10;" parent="1" vertex="1">
          <mxGeometry x="440" y="410" width="20" height="20" as="geometry" />
        </mxCell>
        <mxCell id="XQKA6E9SfsW4dxAdsVXB-64" value="N" style="text;html=1;align=center;verticalAlign=middle;resizable=0;points=[];autosize=1;strokeColor=none;fillColor=none;fontSize=10;" parent="1" vertex="1">
          <mxGeometry x="70" y="190" width="20" height="20" as="geometry" />
        </mxCell>
        <mxCell id="XQKA6E9SfsW4dxAdsVXB-66" value="N" style="text;html=1;align=center;verticalAlign=middle;resizable=0;points=[];autosize=1;strokeColor=none;fillColor=none;fontSize=10;" parent="1" vertex="1">
          <mxGeometry x="360" y="440" width="20" height="20" as="geometry" />
        </mxCell>
        <mxCell id="XQKA6E9SfsW4dxAdsVXB-69" value="STATUS" style="text;html=1;align=center;verticalAlign=middle;resizable=0;points=[];autosize=1;strokeColor=none;fillColor=none;fontSize=10;rotation=-90;" parent="1" vertex="1">
          <mxGeometry x="169" y="230" width="50" height="20" as="geometry" />
        </mxCell>
        <mxCell id="upLe4TXpQlZYvYr_M6zK-1" value="PROFESSOR" style="text;html=1;align=center;verticalAlign=middle;resizable=0;points=[];autosize=1;strokeColor=none;fillColor=none;" vertex="1" parent="1">
          <mxGeometry x="1285" y="40" width="100" height="30" as="geometry" />
        </mxCell>
        <mxCell id="upLe4TXpQlZYvYr_M6zK-3" style="edgeStyle=orthogonalEdgeStyle;rounded=0;orthogonalLoop=1;jettySize=auto;html=1;exitX=0.25;exitY=0;exitDx=0;exitDy=0;endArrow=oval;endFill=1;" edge="1" parent="1" source="upLe4TXpQlZYvYr_M6zK-2">
          <mxGeometry relative="1" as="geometry">
            <mxPoint x="1090" y="90" as="targetPoint" />
          </mxGeometry>
        </mxCell>
        <mxCell id="upLe4TXpQlZYvYr_M6zK-6" value="" style="edgeStyle=orthogonalEdgeStyle;rounded=0;orthogonalLoop=1;jettySize=auto;html=1;endArrow=none;endFill=0;" edge="1" parent="1" source="upLe4TXpQlZYvYr_M6zK-2" target="upLe4TXpQlZYvYr_M6zK-5">
          <mxGeometry relative="1" as="geometry" />
        </mxCell>
        <mxCell id="upLe4TXpQlZYvYr_M6zK-16" value="" style="edgeStyle=orthogonalEdgeStyle;rounded=0;orthogonalLoop=1;jettySize=auto;html=1;endArrow=none;endFill=0;" edge="1" parent="1" source="upLe4TXpQlZYvYr_M6zK-2" target="upLe4TXpQlZYvYr_M6zK-15">
          <mxGeometry relative="1" as="geometry">
            <Array as="points">
              <mxPoint x="1130" y="290" />
            </Array>
          </mxGeometry>
        </mxCell>
        <mxCell id="upLe4TXpQlZYvYr_M6zK-2" value="aluno" style="rounded=0;whiteSpace=wrap;html=1;" vertex="1" parent="1">
          <mxGeometry x="1070" y="120" width="120" height="60" as="geometry" />
        </mxCell>
        <mxCell id="upLe4TXpQlZYvYr_M6zK-4" value="num" style="text;html=1;align=center;verticalAlign=middle;resizable=0;points=[];autosize=1;strokeColor=none;fillColor=none;rotation=-90;" vertex="1" parent="1">
          <mxGeometry x="1070" y="45" width="50" height="30" as="geometry" />
        </mxCell>
        <mxCell id="upLe4TXpQlZYvYr_M6zK-8" value="" style="edgeStyle=orthogonalEdgeStyle;rounded=0;orthogonalLoop=1;jettySize=auto;html=1;endArrow=none;endFill=0;" edge="1" parent="1" source="upLe4TXpQlZYvYr_M6zK-5" target="upLe4TXpQlZYvYr_M6zK-7">
          <mxGeometry relative="1" as="geometry" />
        </mxCell>
        <mxCell id="upLe4TXpQlZYvYr_M6zK-5" value="matriculado" style="rhombus;whiteSpace=wrap;html=1;rounded=0;" vertex="1" parent="1">
          <mxGeometry x="1290" y="110" width="80" height="80" as="geometry" />
        </mxCell>
        <mxCell id="upLe4TXpQlZYvYr_M6zK-7" value="disciplina" style="whiteSpace=wrap;html=1;rounded=0;" vertex="1" parent="1">
          <mxGeometry x="1450" y="120" width="120" height="60" as="geometry" />
        </mxCell>
        <mxCell id="upLe4TXpQlZYvYr_M6zK-9" style="edgeStyle=orthogonalEdgeStyle;rounded=0;orthogonalLoop=1;jettySize=auto;html=1;exitX=0.25;exitY=0;exitDx=0;exitDy=0;endArrow=oval;endFill=1;" edge="1" parent="1">
          <mxGeometry relative="1" as="geometry">
            <mxPoint x="1460" y="90" as="targetPoint" />
            <mxPoint x="1470" y="120" as="sourcePoint" />
          </mxGeometry>
        </mxCell>
        <mxCell id="upLe4TXpQlZYvYr_M6zK-10" value="num" style="text;html=1;align=center;verticalAlign=middle;resizable=0;points=[];autosize=1;strokeColor=none;fillColor=none;rotation=-90;" vertex="1" parent="1">
          <mxGeometry x="1440" y="42.5" width="50" height="30" as="geometry" />
        </mxCell>
        <mxCell id="upLe4TXpQlZYvYr_M6zK-11" value="N" style="text;html=1;align=center;verticalAlign=middle;resizable=0;points=[];autosize=1;strokeColor=none;fillColor=none;" vertex="1" parent="1">
          <mxGeometry x="1385" y="125" width="30" height="30" as="geometry" />
        </mxCell>
        <mxCell id="upLe4TXpQlZYvYr_M6zK-17" style="edgeStyle=orthogonalEdgeStyle;rounded=0;orthogonalLoop=1;jettySize=auto;html=1;entryX=0.5;entryY=1;entryDx=0;entryDy=0;endArrow=none;endFill=0;" edge="1" parent="1" source="upLe4TXpQlZYvYr_M6zK-15" target="upLe4TXpQlZYvYr_M6zK-7">
          <mxGeometry relative="1" as="geometry" />
        </mxCell>
        <mxCell id="upLe4TXpQlZYvYr_M6zK-15" value="concluido" style="rhombus;whiteSpace=wrap;html=1;rounded=0;" vertex="1" parent="1">
          <mxGeometry x="1290" y="250" width="80" height="80" as="geometry" />
        </mxCell>
        <mxCell id="upLe4TXpQlZYvYr_M6zK-29" value="" style="edgeStyle=orthogonalEdgeStyle;rounded=0;orthogonalLoop=1;jettySize=auto;html=1;endArrow=none;endFill=0;exitX=0.5;exitY=1;exitDx=0;exitDy=0;" edge="1" parent="1" source="upLe4TXpQlZYvYr_M6zK-26" target="upLe4TXpQlZYvYr_M6zK-28">
          <mxGeometry relative="1" as="geometry">
            <mxPoint x="1100" y="570" as="sourcePoint" />
            <Array as="points">
              <mxPoint x="1100" y="645" />
            </Array>
          </mxGeometry>
        </mxCell>
        <mxCell id="upLe4TXpQlZYvYr_M6zK-32" style="edgeStyle=orthogonalEdgeStyle;rounded=0;orthogonalLoop=1;jettySize=auto;html=1;exitX=0.5;exitY=0;exitDx=0;exitDy=0;entryX=0.25;entryY=1;entryDx=0;entryDy=0;endArrow=none;endFill=0;" edge="1" parent="1" source="upLe4TXpQlZYvYr_M6zK-26" target="upLe4TXpQlZYvYr_M6zK-2">
          <mxGeometry relative="1" as="geometry" />
        </mxCell>
        <mxCell id="upLe4TXpQlZYvYr_M6zK-26" value="tem" style="rhombus;whiteSpace=wrap;html=1;" vertex="1" parent="1">
          <mxGeometry x="1060" y="370" width="80" height="85" as="geometry" />
        </mxCell>
        <mxCell id="upLe4TXpQlZYvYr_M6zK-30" style="edgeStyle=orthogonalEdgeStyle;rounded=0;orthogonalLoop=1;jettySize=auto;html=1;exitX=0.25;exitY=0;exitDx=0;exitDy=0;endArrow=oval;endFill=1;" edge="1" parent="1" source="upLe4TXpQlZYvYr_M6zK-28">
          <mxGeometry relative="1" as="geometry">
            <mxPoint x="1285" y="580" as="targetPoint" />
          </mxGeometry>
        </mxCell>
        <mxCell id="upLe4TXpQlZYvYr_M6zK-34" value="" style="edgeStyle=orthogonalEdgeStyle;rounded=0;orthogonalLoop=1;jettySize=auto;html=1;endArrow=none;endFill=0;" edge="1" parent="1" source="upLe4TXpQlZYvYr_M6zK-28" target="upLe4TXpQlZYvYr_M6zK-33">
          <mxGeometry relative="1" as="geometry" />
        </mxCell>
        <mxCell id="upLe4TXpQlZYvYr_M6zK-38" value="" style="edgeStyle=orthogonalEdgeStyle;rounded=0;orthogonalLoop=1;jettySize=auto;html=1;endArrow=none;endFill=0;" edge="1" parent="1" source="upLe4TXpQlZYvYr_M6zK-28" target="upLe4TXpQlZYvYr_M6zK-37">
          <mxGeometry relative="1" as="geometry" />
        </mxCell>
        <mxCell id="upLe4TXpQlZYvYr_M6zK-28" value="curso" style="whiteSpace=wrap;html=1;" vertex="1" parent="1">
          <mxGeometry x="1275" y="610" width="120" height="60" as="geometry" />
        </mxCell>
        <mxCell id="upLe4TXpQlZYvYr_M6zK-31" value="cod" style="text;html=1;align=center;verticalAlign=middle;resizable=0;points=[];autosize=1;strokeColor=none;fillColor=none;" vertex="1" parent="1">
          <mxGeometry x="1265" y="540" width="40" height="30" as="geometry" />
        </mxCell>
        <mxCell id="upLe4TXpQlZYvYr_M6zK-35" style="edgeStyle=orthogonalEdgeStyle;rounded=0;orthogonalLoop=1;jettySize=auto;html=1;endArrow=none;endFill=0;entryX=0.75;entryY=1;entryDx=0;entryDy=0;" edge="1" parent="1" source="upLe4TXpQlZYvYr_M6zK-33" target="upLe4TXpQlZYvYr_M6zK-7">
          <mxGeometry relative="1" as="geometry">
            <mxPoint x="1535" y="180" as="targetPoint" />
          </mxGeometry>
        </mxCell>
        <mxCell id="upLe4TXpQlZYvYr_M6zK-33" value="tem" style="rhombus;whiteSpace=wrap;html=1;" vertex="1" parent="1">
          <mxGeometry x="1500" y="370" width="80" height="80" as="geometry" />
        </mxCell>
        <mxCell id="upLe4TXpQlZYvYr_M6zK-36" value="n" style="text;html=1;align=center;verticalAlign=middle;resizable=0;points=[];autosize=1;strokeColor=none;fillColor=none;" vertex="1" parent="1">
          <mxGeometry x="1215" y="115" width="30" height="30" as="geometry" />
        </mxCell>
        <mxCell id="upLe4TXpQlZYvYr_M6zK-40" value="" style="edgeStyle=orthogonalEdgeStyle;rounded=0;orthogonalLoop=1;jettySize=auto;html=1;endArrow=none;endFill=0;" edge="1" parent="1" source="upLe4TXpQlZYvYr_M6zK-37" target="upLe4TXpQlZYvYr_M6zK-39">
          <mxGeometry relative="1" as="geometry" />
        </mxCell>
        <mxCell id="upLe4TXpQlZYvYr_M6zK-37" value="tem" style="rhombus;whiteSpace=wrap;html=1;" vertex="1" parent="1">
          <mxGeometry x="1295" y="480" width="80" height="80" as="geometry" />
        </mxCell>
        <mxCell id="upLe4TXpQlZYvYr_M6zK-39" value="Departamento" style="whiteSpace=wrap;html=1;" vertex="1" parent="1">
          <mxGeometry x="1275" y="360" width="120" height="60" as="geometry" />
        </mxCell>
        <mxCell id="upLe4TXpQlZYvYr_M6zK-43" value="n" style="text;html=1;align=center;verticalAlign=middle;resizable=0;points=[];autosize=1;strokeColor=none;fillColor=none;" vertex="1" parent="1">
          <mxGeometry x="545" y="425" width="30" height="30" as="geometry" />
        </mxCell>
        <mxCell id="upLe4TXpQlZYvYr_M6zK-44" value="n" style="text;html=1;align=center;verticalAlign=middle;resizable=0;points=[];autosize=1;strokeColor=none;fillColor=none;" vertex="1" parent="1">
          <mxGeometry x="545" y="485" width="30" height="30" as="geometry" />
        </mxCell>
        <mxCell id="upLe4TXpQlZYvYr_M6zK-45" value="n" style="text;html=1;align=center;verticalAlign=middle;resizable=0;points=[];autosize=1;strokeColor=none;fillColor=none;" vertex="1" parent="1">
          <mxGeometry x="1065" y="205" width="30" height="30" as="geometry" />
        </mxCell>
        <mxCell id="upLe4TXpQlZYvYr_M6zK-46" value="1" style="text;html=1;align=center;verticalAlign=middle;resizable=0;points=[];autosize=1;strokeColor=none;fillColor=none;" vertex="1" parent="1">
          <mxGeometry x="1135" y="620" width="30" height="30" as="geometry" />
        </mxCell>
        <mxCell id="upLe4TXpQlZYvYr_M6zK-47" value="n" style="text;html=1;align=center;verticalAlign=middle;resizable=0;points=[];autosize=1;strokeColor=none;fillColor=none;" vertex="1" parent="1">
          <mxGeometry x="1325" y="700" width="30" height="30" as="geometry" />
        </mxCell>
        <mxCell id="upLe4TXpQlZYvYr_M6zK-48" value="1" style="text;html=1;align=center;verticalAlign=middle;resizable=0;points=[];autosize=1;strokeColor=none;fillColor=none;" vertex="1" parent="1">
          <mxGeometry x="1335" y="840" width="30" height="30" as="geometry" />
        </mxCell>
        <mxCell id="upLe4TXpQlZYvYr_M6zK-49" value="n" style="text;html=1;align=center;verticalAlign=middle;resizable=0;points=[];autosize=1;strokeColor=none;fillColor=none;" vertex="1" parent="1">
          <mxGeometry x="1540" y="275" width="30" height="30" as="geometry" />
        </mxCell>
        <mxCell id="upLe4TXpQlZYvYr_M6zK-50" value="n" style="text;html=1;align=center;verticalAlign=middle;resizable=0;points=[];autosize=1;strokeColor=none;fillColor=none;" vertex="1" parent="1">
          <mxGeometry x="1425" y="600" width="30" height="30" as="geometry" />
        </mxCell>
        <mxCell id="upLe4TXpQlZYvYr_M6zK-51" value="n" style="text;html=1;align=center;verticalAlign=middle;resizable=0;points=[];autosize=1;strokeColor=none;fillColor=none;" vertex="1" parent="1">
          <mxGeometry x="1185" y="255" width="30" height="30" as="geometry" />
        </mxCell>
        <mxCell id="upLe4TXpQlZYvYr_M6zK-52" value="n" style="text;html=1;align=center;verticalAlign=middle;resizable=0;points=[];autosize=1;strokeColor=none;fillColor=none;" vertex="1" parent="1">
          <mxGeometry x="1425" y="245" width="30" height="30" as="geometry" />
        </mxCell>
        <mxCell id="upLe4TXpQlZYvYr_M6zK-53" value="MEU" style="text;html=1;align=center;verticalAlign=middle;resizable=0;points=[];autosize=1;strokeColor=none;fillColor=none;" vertex="1" parent="1">
          <mxGeometry x="345" y="25" width="50" height="30" as="geometry" />
        </mxCell>
      </root>
    </mxGraphModel>
  </diagram>
</mxfile>
